<?xml version="1.0" encoding="UTF-8"?>
<svg id="Layer_1" data-name="Layer 1" xmlns="http://www.w3.org/2000/svg" viewBox="0 0 1080 1080">
  <defs>
    <style>
      .cls-1 {
        letter-spacing: -.01em;
      }

      .cls-2 {
        letter-spacing: .01em;
      }

      .cls-3 {
        letter-spacing: 0em;
      }

      .cls-4 {
        font-family: Roboto-Medium, Roboto;
        font-size: 154.92px;
        font-weight: 500;
      }

      .cls-4, .cls-5 {
        fill: #2b3743;
      }

      .cls-6 {
        letter-spacing: -.02em;
      }

      .cls-5, .cls-7 {
        stroke-width: 0px;
      }

      .cls-7 {
        fill: #4e9d4b;
      }

      .cls-8 {
        letter-spacing: .04em;
      }

      .cls-9 {
        font-family: QuicksandBook-Regular, Quicksand;
        font-size: 44.01px;
      }
    </style>
  </defs>
  <text class="cls-9" transform="translate(193.26 834.52)"><tspan x="0" y="0">Sm</tspan><tspan class="cls-2" x="71.21" y="0">a</tspan><tspan x="99.07" y="0">ll pu</tspan><tspan class="cls-6" x="190.23" y="0">r</tspan><tspan x="208.45" y="0">c</tspan><tspan class="cls-8" x="233.58" y="0">h</tspan><tspan x="262.32" y="0">ases, big impact</tspan></text>
  <text class="cls-4" transform="translate(93.96 784.78)"><tspan x="0" y="0">gi</tspan><tspan class="cls-3" x="127.91" y="0">v</tspan><tspan x="205.45" y="0">e</tspan><tspan class="cls-1" x="286.54" y="0">X</tspan><tspan x="382.91" y="0">change</tspan></text>
  <g>
    <path class="cls-7" d="m521.08,506.67c-13.94-14.32-32.39-25.25-47.97-36.86-23.84-17.78-47.67-35.56-71.51-53.34-8.47-6.42-24.8-13.05-29.07-23.46-6.13-14.96,31.97-1.69,37.52.11,23.94,7.76,47.32,17.36,69.81,28.66,22.96,11.54,45.03,24.93,65.56,40.4,1.66,1.25,10.33-.98,12.21-1.2,11.04-1.31,22.04-3.1,32.95-5.26,18.19-3.6,36.04-8.72,53.53-14.84,9.04-3.16,18-6.59,26.88-10.19,8.22-3.33,16.79-8.39,26.01-6.96,19.54,3.02,8.35,30.05,3.58,40.85-8.5,19.21-19.3,38.9-30.64,56.48-5.25,8.15-10.97,16-17.16,23.47-43.54,52.54-117.43,92.94-186.52,73.69-24.1-6.72-48.56-19.92-66.12-37.91-1.44-1.47-2.88-3.08-3.37-5.08-3.16-12.95,26.37-5.21,31.36-4.02,26.35,6.29,50.89,14.08,78.33,10.16,18.98-2.71,39.81-12.18,36.07-34.87-2.44-14.79-11.14-29.23-21.46-39.82Z"/>
    <path class="cls-5" d="m471.9,494.79c-19.32,0-34.99,15.66-34.99,34.99s15.66,34.99,34.99,34.99,34.99-15.66,34.99-34.99-15.66-34.99-34.99-34.99Zm0,54.17c-10.6,0-19.19-8.59-19.19-19.19s8.59-19.19,19.19-19.19,19.19,8.59,19.19,19.19-8.59,19.19-19.19,19.19Z"/>
    <path class="cls-7" d="m456.06,304.97s21.93,65.47,85.69,134.36c0,0,22.4,17.3,15.28-13.83,0,0-35.58-91.28-83.61-139.71,0,0-22.25-8.84-17.35,19.18Z"/>
    <path class="cls-7" d="m520.86,257.9s12.59,77.86,71.69,167.32c0,0,22.04,23.65,19.79-12.76,0,0-23.19-109.48-68.36-172.96,0,0-23.44-14.09-23.11,18.4Z"/>
    <path class="cls-7" d="m610.06,289.55s1.38,48.95,37.28,114.82c0,0,14.42,18.8,16.57-3.31,0,0-6.16-70.02-34.12-117.46,0,0-16.52-13.42-19.73,5.94Z"/>
  </g>
</svg>